<svg xmlns="http://www.w3.org/2000/svg" width="47.5" height="44.194" viewBox="0 0 47.5 44.194"><defs><style>.a{fill:#21a365;}.b{fill:#107c41;}.c{fill:#185b37;}.d{fill:#33c481;}.e{fill:#17864c;}.f{fill:#fff;}.g{opacity:0.2;}</style></defs><g transform="translate(-0.1 -4.5)"><rect class="a" width="18.309" height="11.067" transform="translate(29.291 15.53)"/><rect class="b" width="18.309" height="11.067" transform="translate(29.291 26.597)"/><rect class="b" width="18.272" height="11.067" transform="translate(11.019 15.53)"/><path class="c" d="M47.835,75.067V64H29.6V83.943A2.156,2.156,0,0,0,31.754,86.1h32.2a2.156,2.156,0,0,0,2.154-2.154V75.067Z" transform="translate(-18.544 -37.403)"/><path class="d" d="M94.755,4.5H78.6V15.567H96.946V6.654A2.212,2.212,0,0,0,94.755,4.5Z" transform="translate(-49.347)"/><path class="a" d="M47.9,4.5H31.854A2.156,2.156,0,0,0,29.7,6.654V15.53H47.935V4.5Z" transform="translate(-18.607)"/><path class="e" d="M22.16,55.64H2.477A2.393,2.393,0,0,1,.1,53.263V33.877A2.393,2.393,0,0,1,2.477,31.5H22.16a2.393,2.393,0,0,1,2.377,2.377V53.263A2.37,2.37,0,0,1,22.16,55.64Z" transform="translate(0 -16.973)"/><g transform="translate(6.896 20.098)"><path class="f" d="M26.608,59.833,25.159,57.2c-.594-1.04-.966-1.745-1.374-2.525h-.037c-.334.78-.668,1.486-1.226,2.525l-1.3,2.637H18.4l4.011-6.722-3.9-6.611h2.86l1.448,2.748c.446.817.78,1.486,1.114,2.228h.074c.371-.817.631-1.411,1.077-2.228L26.533,46.5h2.822L25.382,53,29.5,59.833Z" transform="translate(-18.4 -46.5)"/></g><path class="g" d="M43.881,37.3V56.909A2.393,2.393,0,0,1,41.5,59.286H30.4V61.4H43.473a2.393,2.393,0,0,0,2.377-2.377V39.64A2.3,2.3,0,0,0,43.881,37.3Z" transform="translate(-19.047 -20.619)"/></g></svg>