<svg xmlns="http://www.w3.org/2000/svg" width="44" height="43" viewBox="0 0 44 43"><defs><style>.a{fill:#303030;}</style></defs><g transform="translate(0 0)"><g transform="translate(0 0)"><g transform="translate(5.101 5.681)"><g transform="translate(0 0.5)"><path class="a" d="M219.1,173.6h1.715v12.713H219.1Z" transform="translate(-219.1 -173.6)"/></g><g transform="translate(4.408)"><path class="a" d="M257.9,169.2l9.4,9.657V169.7h1.738V183l-9.4-9.623v9.032H257.9Z" transform="translate(-257.9 -169.2)"/></g></g><g transform="translate(18.29 24.572)"><g transform="translate(0 0.091)"><path class="a" d="M344.816,344.318l-1.409,1.125a5.707,5.707,0,0,0-1.011-.863,2.452,2.452,0,0,0-1.307-.284,2.539,2.539,0,0,0-1.522.42,1.3,1.3,0,0,0-.579,1.091,1.323,1.323,0,0,0,.511,1.023,7.071,7.071,0,0,0,1.738.966,13.14,13.14,0,0,1,1.909.977,5.115,5.115,0,0,1,1.125,1,3.676,3.676,0,0,1,.648,1.159,3.716,3.716,0,0,1,.216,1.284,3.659,3.659,0,0,1-1.147,2.7,3.831,3.831,0,0,1-2.783,1.113,4.74,4.74,0,0,1-2.818-.875,5.486,5.486,0,0,1-1.886-2.613l1.738-.489a3.092,3.092,0,0,0,2.908,2.147,2.282,2.282,0,0,0,1.579-.568,1.829,1.829,0,0,0,.625-1.432,1.943,1.943,0,0,0-.33-1.034,2.831,2.831,0,0,0-.818-.863,8.876,8.876,0,0,0-1.556-.773,10.619,10.619,0,0,1-1.647-.807,4.315,4.315,0,0,1-1-.863,3.55,3.55,0,0,1-.613-1,2.786,2.786,0,0,1-.193-1.068,2.985,2.985,0,0,1,1.1-2.329,3.934,3.934,0,0,1,2.67-.966,5.235,5.235,0,0,1,2.1.454A4.425,4.425,0,0,1,344.816,344.318Z" transform="translate(-336.5 -342.5)"/></g><g transform="translate(9.555)"><path class="a" d="M426.553,341.7l6,13.2h-1.818l-1.477-3.249h-5.4l-1.454,3.249H420.6Zm0,3.965L424.52,350.2h4.09Z" transform="translate(-420.6 -341.7)"/></g></g><g transform="translate(4.476 5.499)"><path class="a" d="M213.962,200.966l-.362-.356,33.561-33.01.362.345Z" transform="translate(-213.6 -167.6)"/></g><g transform="translate(0 0)"><path class="a" d="M218.2,162.2h-44v-43h44Zm-43.151-.838h42.3V120.038h-42.3Z" transform="translate(-174.2 -119.2)"/></g><g transform="translate(3.806 37.831)"><path class="a" d="M209.4,459.252a.852.852,0,1,1-.852-.852A.851.851,0,0,1,209.4,459.252Z" transform="translate(-207.7 -458.4)"/></g><g transform="translate(37.365 4.828)"><path class="a" d="M506.1,162.552a.852.852,0,1,1-.852-.852A.851.851,0,0,1,506.1,162.552Z" transform="translate(-504.4 -161.7)"/></g></g></g></svg>