<?xml version="1.0" encoding="utf-8"?>
<!-- Generator: Adobe Illustrator 22.0.1, SVG Export Plug-In . SVG Version: 6.00 Build 0)  -->
<svg version="1.1" xmlns="http://www.w3.org/2000/svg" xmlns:xlink="http://www.w3.org/1999/xlink" x="0px" y="0px"
	 viewBox="0 0 314 208" style="enable-background:new 0 0 314 208;" xml:space="preserve">
<style type="text/css">
	.st0{fill:#FFFFFF;}
	.st1{fill:#303030;}
	.st2{fill:#EEEEEE;}
	.st3{fill:#DED6CA;}
	.st4{fill:#999999;}
	.st5{fill-rule:evenodd;clip-rule:evenodd;fill:#FFFFFF;}
	.st6{fill:#9E8B7A;}
	.st7{fill:#FE4E00;}
	.st8{fill:#FFFFFF;stroke:#303030;stroke-miterlimit:10;}
	.st9{fill:#BDA075;}
	.st10{fill:none;stroke:#222222;stroke-miterlimit:10;}
	.st11{opacity:0.66;fill:none;stroke:#222222;stroke-miterlimit:10;}
	.st12{opacity:0.3;fill:none;stroke:#222222;stroke-miterlimit:10;}
	.st13{opacity:0.5;fill:none;stroke:#303030;stroke-miterlimit:10;}
</style>
<g id="BACKGROUND">
</g>
<g id="OBJECTS">
	<g>
		<g>
			<g>
				<g>
					<g>
						<g>
							<g>
								<g>
									<g>
										<g>
											<path class="st0" d="M48.1,177.5c-7.8,0-14.1-6.3-14.1-14.1V14.6c0-7.8,6.3-14.1,14.1-14.1h240.1
												c7.8,0,14.1,6.3,14.1,14.1v148.9c0,7.8-6.3,14.1-14.1,14.1H48.1z"/>
											<path class="st1" d="M288.1,1c7.5,0,13.6,6.1,13.6,13.6v148.9c0,7.5-6.1,13.6-13.6,13.6H48.1c-7.5,0-13.6-6.1-13.6-13.6
												V14.6C34.5,7.1,40.6,1,48.1,1H288.1 M288.1,0H48.1c-8,0-14.6,6.5-14.6,14.6v148.9c0,8,6.5,14.6,14.6,14.6h240.1
												c8,0,14.6-6.5,14.6-14.6V14.6C302.7,6.5,296.2,0,288.1,0L288.1,0z"/>
										</g>
									</g>
									<g>
										<g>
											<path class="st0" d="M37.8,179.9c-8.1,0-14.8-6.5-15.1-14.6h290.6c-0.3,8.1-6.9,14.6-15.1,14.6H37.8z"/>
											<path class="st1" d="M312.9,165.9c-0.5,7.6-6.8,13.6-14.5,13.6H37.8c-7.7,0-14-6-14.5-13.6H312.9 M313.9,164.9H22.3
												c0,8.6,7,15.6,15.6,15.6h260.5C306.9,180.4,313.9,173.5,313.9,164.9L313.9,164.9z"/>
										</g>
									</g>
								</g>
								<g>
									<g>
										<rect x="49.2" y="13.1" class="st2" width="233.8" height="140.3"/>
									</g>
								</g>
								<g>
									<path class="st1" d="M59.2,20c0,1.1-0.9,2-2,2c-1.1,0-2-0.9-2-2c0-1.1,0.9-2,2-2C58.3,18,59.2,18.9,59.2,20z"/>
								</g>
								<g>
									<path class="st1" d="M67.2,20c0,1.1-0.9,2-2,2c-1.1,0-2-0.9-2-2c0-1.1,0.9-2,2-2C66.3,18,67.2,18.9,67.2,20z"/>
								</g>
								<g>
									<path class="st1" d="M75.2,20c0,1.1-0.9,2-2,2c-1.1,0-2-0.9-2-2c0-1.1,0.9-2,2-2C74.3,18,75.2,18.9,75.2,20z"/>
								</g>
								<g>
									<rect x="33.5" y="166" class="st3" width="269.2" height="5.5"/>
								</g>
							</g>
							<g>
								<g>
									<rect x="68.4" y="93.3" class="st1" width="51.1" height="3.4"/>
								</g>
								<g>
									<rect x="134.4" y="45.8" class="st3" width="51.1" height="3.4"/>
								</g>
								<g>
									<g>
										<path class="st3" d="M261.7,58.5c0,0.1-28.5,0.2-63.6,0.2c-35.1,0-63.6-0.1-63.6-0.2s28.5-0.2,63.6-0.2
											C233.2,58.3,261.7,58.4,261.7,58.5z"/>
									</g>
								</g>
								<g>
									<g>
										<path class="st3" d="M261.7,66c0,0.1-28.5,0.2-63.6,0.2c-35.1,0-63.6-0.1-63.6-0.2s28.5-0.2,63.6-0.2
											C233.2,65.8,261.7,65.9,261.7,66z"/>
									</g>
								</g>
								<g>
									<g>
										<path class="st3" d="M261.7,73.5c0,0.1-28.5,0.2-63.6,0.2c-35.1,0-63.6-0.1-63.6-0.2c0-0.1,28.5-0.2,63.6-0.2
											C233.2,73.2,261.7,73.3,261.7,73.5z"/>
									</g>
								</g>
								<g>
									<g>
										<path class="st3" d="M261.7,80.9c0,0.1-28.5,0.2-63.6,0.2c-35.1,0-63.6-0.1-63.6-0.2s28.5-0.2,63.6-0.2
											C233.2,80.7,261.7,80.8,261.7,80.9z"/>
									</g>
								</g>
								<g>
									<g>
										<path class="st3" d="M261.7,88.4c0,0.1-28.5,0.2-63.6,0.2c-35.1,0-63.6-0.1-63.6-0.2c0-0.1,28.5-0.2,63.6-0.2
											C233.2,88.2,261.7,88.3,261.7,88.4z"/>
									</g>
								</g>
								<g>
									<g>
										<path class="st3" d="M184.1,95.9c0,0.1-11.1,0.2-24.8,0.2c-13.7,0-24.8-0.1-24.8-0.2c0-0.1,11.1-0.2,24.8-0.2
											C173,95.7,184.1,95.8,184.1,95.9z"/>
									</g>
								</g>
								<g>
									<g>
										<path class="st3" d="M260.7,110.4c0,0.1-18.7,0.2-41.8,0.2c-23.1,0-41.8-0.1-41.8-0.2s18.7-0.2,41.8-0.2
											C242,110.2,260.7,110.3,260.7,110.4z"/>
									</g>
								</g>
								<g>
									<g>
										<path class="st3" d="M260.7,118.3c0,0.1-18.7,0.2-41.8,0.2c-23.1,0-41.8-0.1-41.8-0.2c0-0.1,18.7-0.2,41.8-0.2
											C242,118.1,260.7,118.2,260.7,118.3z"/>
									</g>
								</g>
								<g>
									<g>
										<path class="st3" d="M260.7,126.2c0,0.1-18.7,0.2-41.8,0.2c-23.1,0-41.8-0.1-41.8-0.2c0-0.1,18.7-0.2,41.8-0.2
											C242,126,260.7,126.1,260.7,126.2z"/>
									</g>
								</g>
								<g>
									<g>
										<path class="st3" d="M260.7,134.2c0,0.1-18.7,0.2-41.8,0.2c-23.1,0-41.8-0.1-41.8-0.2c0-0.1,18.7-0.2,41.8-0.2
											C242,133.9,260.7,134,260.7,134.2z"/>
									</g>
								</g>
								<g>
									<g>
										<path class="st3" d="M119.7,109.6c0,0.1-11.2,0.2-24.9,0.2c-13.8,0-24.9-0.1-24.9-0.2c0-0.1,11.2-0.2,24.9-0.2
											C108.5,109.4,119.7,109.5,119.7,109.6z"/>
									</g>
								</g>
								<g>
									<g>
										<path class="st3" d="M119.7,115.8c0,0.1-11.2,0.2-24.9,0.2c-13.8,0-24.9-0.1-24.9-0.2c0-0.1,11.2-0.2,24.9-0.2
											C108.5,115.6,119.7,115.7,119.7,115.8z"/>
									</g>
								</g>
								<g>
									<g>
										<path class="st3" d="M119.7,122.1c0,0.1-11.2,0.2-24.9,0.2c-13.8,0-24.9-0.1-24.9-0.2c0-0.1,11.2-0.2,24.9-0.2
											C108.5,121.9,119.7,122,119.7,122.1z"/>
									</g>
								</g>
								<g>
									<g>
										<path class="st3" d="M119.7,128.3c0,0.1-11.2,0.2-24.9,0.2c-13.8,0-24.9-0.1-24.9-0.2c0-0.1,11.2-0.2,24.9-0.2
											C108.5,128.1,119.7,128.2,119.7,128.3z"/>
									</g>
								</g>
								<g>
									<g>
										<path class="st3" d="M119.7,134.5c0,0.1-11.2,0.2-24.9,0.2c-13.8,0-24.9-0.1-24.9-0.2c0-0.1,11.2-0.2,24.9-0.2
											C108.5,134.3,119.7,134.4,119.7,134.5z"/>
									</g>
								</g>
								<g>
									<g>
										<g>
											<g>
												<g>
													<path class="st1" d="M115.7,80.1c0,0,0-0.1,0-0.2c0-0.1,0-0.3,0-0.6c0-0.5,0-1.3,0-2.2c0-2,0-4.8-0.1-8.4
														c0-7.2-0.1-17.6-0.1-30l0.2,0.2c-12.5,0-27.4,0-43.3,0c-0.1,0.1,0.5-0.5,0.2-0.2v0v0v0v0.1v0.2v0.4v0.7v1.4
														c0,0.9,0,1.9,0,2.8c0,1.9,0,3.7,0,5.5c0,3.6,0,7.2,0,10.7c0,6.9,0,13.5,0,19.6l-0.2-0.2c12.9,0,23.7,0.1,31.3,0.1
														c3.8,0,6.8,0,8.8,0.1c1,0,1.8,0,2.3,0c0.3,0,0.5,0,0.6,0C115.6,80.1,115.7,80.1,115.7,80.1c0,0-0.1,0-0.2,0
														c-0.1,0-0.3,0-0.6,0c-0.5,0-1.3,0-2.3,0c-2.1,0-5,0-8.8,0.1c-7.6,0-18.5,0.1-31.5,0.1l-0.2,0v-0.2c0-6,0-12.6,0-19.6
														c0-3.5,0-7,0-10.7c0-1.8,0-3.7,0-5.5c0-0.9,0-1.9,0-2.8v-1.4l0-0.7v-0.4v-0.2v-0.1v0v0v0c-0.2,0.2,0.3-0.3,0.2-0.3
														c15.9,0,30.8,0,43.3,0h0.2l0,0.2c0,12.4-0.1,22.8-0.1,30.1c0,3.6,0,6.4-0.1,8.4c0,0.9,0,1.7,0,2.2c0,0.2,0,0.4,0,0.6
														C115.7,80,115.7,80.1,115.7,80.1z"/>
												</g>
											</g>
										</g>
									</g>
								</g>
								<g>
									<g>
										<g>
											<g>
												<g>
													<path class="st3" d="M167.9,138.8c0,0,0-0.1,0-0.1c0-0.1,0-0.2,0-0.4c0-0.4,0-0.9,0-1.6c0-1.4,0-3.4,0-6
														c0-5.1,0-12.4-0.1-21.2l0.1,0.1c-8.9,0-19.4,0-30.7,0c0,0,0.3-0.3,0.2-0.2v0v0v0v0.1v0.1v0.3v0.5v1c0,0.7,0,1.3,0,2
														c0,1.3,0,2.6,0,3.9c0,2.6,0,5.1,0,7.6c0,4.9,0,9.6,0,13.8l-0.2-0.2c9.2,0,16.8,0.1,22.2,0.1c2.7,0,4.8,0,6.3,0
														c0.7,0,1.3,0,1.7,0c0.2,0,0.3,0,0.4,0C167.8,138.8,167.9,138.8,167.9,138.8c0,0,0,0-0.1,0c-0.1,0-0.2,0-0.4,0
														c-0.4,0-0.9,0-1.6,0c-1.5,0-3.6,0-6.2,0c-5.4,0-13.1,0-22.3,0.1h-0.2v-0.2c0-4.3,0-8.9,0-13.8c0-2.5,0-5,0-7.6
														c0-1.3,0-2.6,0-3.9c0-0.7,0-1.3,0-2v-1l0-0.5v-0.3v-0.1v-0.1v0v0v0c-0.2,0.2,0.2-0.2,0.2-0.2c11.3,0,21.8,0,30.7,0
														l0.1,0l0,0.1c0,8.8-0.1,16.1-0.1,21.3c0,2.5,0,4.5,0,5.9c0,0.7,0,1.2,0,1.6c0,0.2,0,0.3,0,0.4
														C167.9,138.8,167.9,138.8,167.9,138.8z"/>
												</g>
											</g>
										</g>
									</g>
								</g>
								<g>
									<g>
										<g>
											<rect x="77" y="41.2" class="st0" width="71" height="87.4"/>
											<g>
												<circle class="st4" cx="112.6" cy="64.6" r="14.2"/>
											</g>
											<g>
												<line class="st4" x1="84.9" y1="101.9" x2="140.2" y2="101.9"/>
												<g>
													<rect x="84.9" y="101.2" class="st4" width="55.3" height="1.4"/>
												</g>
											</g>
											<g>
												<line class="st4" x1="84.9" y1="95.9" x2="140.2" y2="95.9"/>
												<g>
													<rect x="84.9" y="95.2" class="st4" width="55.3" height="1.4"/>
												</g>
											</g>
											<g>
												<line class="st4" x1="84.9" y1="90" x2="140.2" y2="90"/>
												<g>
													<rect x="84.9" y="89.3" class="st4" width="55.3" height="1.4"/>
												</g>
											</g>
											<g>
												<line class="st4" x1="84.9" y1="107.9" x2="140.2" y2="107.9"/>
												<g>
													<rect x="84.9" y="107.2" class="st4" width="55.3" height="1.4"/>
												</g>
											</g>
											<g>
												<line class="st4" x1="84.9" y1="113.9" x2="140.2" y2="113.9"/>
												<g>
													<rect x="84.9" y="113.2" class="st4" width="55.3" height="1.4"/>
												</g>
											</g>
											<g>
												<line class="st4" x1="84.9" y1="119.9" x2="119" y2="119.9"/>
												<g>
													<rect x="84.9" y="119.2" class="st4" width="34.1" height="1.4"/>
												</g>
											</g>
											<path class="st5" d="M117.8,74C117.8,74,117.8,74,117.8,74c-0.3-0.3-3.1-0.7-3.4-0.8c-0.4-0.2-0.5-0.1-0.5-0.6v-0.2
												c1.6-0.5,2.9-2.2,3.6-4.2c0.6,0.1,1.3-0.4,1.5-1.3c0.2-0.8-0.1-1.6-0.7-1.9c0-0.2,0.1-0.4,0.1-0.4s0.3-1.4,0-2.7
												c-0.2-0.8-0.5-1.4-0.7-1.7c-0.5-0.9-1.3-1.4-2.4-1.7c0,0,0-0.1,0-0.1c0-1-1-1.8-2.3-1.8c-1.3,0-2.3,0.8-2.3,1.8
												c0,0.1,0,0.1,0,0.2c-3.6,1.1-3.7,5-3.3,6.4c0,0,0,0,0,0l0,0c-0.6,0.2-0.9,1-0.7,1.9c0.2,0.9,0.8,1.3,1.5,1.3
												c0.7,1.9,1.9,3.5,3.4,4.1v0.3c0,0.5-0.1,0.4-0.5,0.6c-0.8,0.4-2.8,0.4-3.3,0.8l0,0c-1.1,0.6-1.4,3.7-1.5,5.1h1.6h0.8h0.4
												h0.8h2.9h0h0h2.8h1h0.4h0.8h1.6C119.2,77.7,118.9,74.5,117.8,74z"/>
										</g>
									</g>
									<g>
										<g>
											<rect x="188.2" y="41.2" class="st0" width="71" height="87.4"/>
										</g>
										<g>
											<circle class="st4" cx="223.8" cy="64.6" r="14.2"/>
										</g>
										<g>
											<g>
												<line class="st4" x1="196.1" y1="102.1" x2="251.4" y2="102.1"/>
												<g>
													<rect x="196.1" y="101.4" class="st4" width="55.3" height="1.4"/>
												</g>
											</g>
											<g>
												<line class="st4" x1="196.1" y1="96.2" x2="251.4" y2="96.2"/>
												<g>
													<rect x="196.1" y="95.5" class="st4" width="55.3" height="1.4"/>
												</g>
											</g>
											<g>
												<line class="st4" x1="196.1" y1="90.2" x2="251.4" y2="90.2"/>
												<g>
													<rect x="196.1" y="89.5" class="st4" width="55.3" height="1.4"/>
												</g>
											</g>
											<g>
												<line class="st4" x1="196.1" y1="108" x2="251.4" y2="108"/>
												<g>
													<rect x="196.1" y="107.3" class="st4" width="55.3" height="1.4"/>
												</g>
											</g>
											<g>
												<line class="st4" x1="196.1" y1="113.9" x2="251.4" y2="113.9"/>
												<g>
													<rect x="196.1" y="113.2" class="st4" width="55.3" height="1.4"/>
												</g>
											</g>
											<g>
												<line class="st4" x1="196.1" y1="119.9" x2="230.2" y2="119.9"/>
												<g>
													<rect x="196.1" y="119.2" class="st4" width="34.1" height="1.4"/>
												</g>
											</g>
										</g>
										<g>
											<g>
												<rect x="126.2" y="34.2" class="st0" width="84.3" height="103.8"/>
											</g>
											
												<ellipse transform="matrix(0.1602 -0.9871 0.9871 0.1602 81.5189 216.9344)" class="st6" cx="168.2" cy="60.6" rx="16.9" ry="16.9"/>
											<g>
												<g>
													<line class="st3" x1="135.3" y1="104.5" x2="201.2" y2="104.5"/>
													<rect x="135.3" y="103.6" class="st6" width="65.9" height="1.6"/>
												</g>
												<g>
													<line class="st3" x1="135.3" y1="97.5" x2="201.2" y2="97.5"/>
													<rect x="135.3" y="96.6" class="st6" width="65.9" height="1.6"/>
												</g>
												<g>
													<line class="st3" x1="135.3" y1="90.5" x2="201.2" y2="90.5"/>
													<rect x="135.3" y="89.6" class="st6" width="65.9" height="1.6"/>
												</g>
												<g>
													<line class="st3" x1="135.3" y1="111.5" x2="201.2" y2="111.5"/>
													<rect x="135.3" y="110.6" class="st6" width="65.9" height="1.6"/>
												</g>
												<g>
													<line class="st3" x1="135.3" y1="118.5" x2="201.2" y2="118.5"/>
													<rect x="135.3" y="117.6" class="st6" width="65.9" height="1.6"/>
												</g>
												<g>
													<line class="st3" x1="135.3" y1="125.4" x2="175.9" y2="125.4"/>
													<rect x="135.3" y="124.6" class="st6" width="40.6" height="1.6"/>
												</g>
											</g>
											<path class="st5" d="M174.6,72.1C174.6,72.1,174.6,72.1,174.6,72.1c-0.2-0.1-0.8-0.4-1.6-0.7c0,0,0,0,0,0l-1-0.4l0,0
												c-0.5-0.2-1-0.4-1.3-0.5c0,0,0,0,0,0c-0.5-0.3-0.6-0.2-0.6-0.7v-0.1c0.5-0.1,1-0.2,1.2-0.2c0.3-0.1,2.1-1.2,2.6-1.8
												c0.3-0.4,0.8-2.2,1.1-3.4c0.7-0.2,1.2-0.7,1.4-1.4c0.2-0.9-0.2-1.7-1-2.1c0-0.3,0-0.6,0-0.9c0-0.2,0-0.4,0-0.6
												c0.1-0.7,0.2-1.5,0.4-2.4c0.4-1.9-0.5-3-2-2.8c-0.2-4.3-8.6-0.7-9.6-0.5c-2.7,0.5-3.8-1.2-3.8-1.2
												c-0.9,2.7-0.3,5.1,1.7,5.9c0,0.7,0,1.5,0.1,2.6c-0.7,0.4-1.1,1.2-1,2.1c0.1,0.8,0.7,1.3,1.4,1.5c0.3,1.2,0.7,3,1.1,3.4
												c0.5,0.7,2.3,1.7,2.6,1.8c0.1,0,0.4,0.1,0.8,0.2v0.2c0,0.6-0.1,0.4-0.6,0.7c0,0,0,0,0,0c-0.8,0.4-3.5,1.4-3.9,1.7
												c0,0,0,0,0,0c-1.4,0.5-1.7,3.5-1.8,5.3h2.8h0.5h0.4h1.2h2.5h0.4h0.4h2.5h1.2h0.4h0.5h2.8C176.3,75.6,176,72.5,174.6,72.1
												z"/>
										</g>
										<path class="st5" d="M229,74C229,74,229,74,229,74c-0.3-0.3-3.1-0.7-3.4-0.8c-0.4-0.2-0.5-0.1-0.5-0.6v-0.2
											c1.6-0.5,2.9-2.2,3.6-4.2c0.6,0.1,1.3-0.4,1.5-1.3c0.2-0.8-0.1-1.6-0.7-1.9c0-0.2,0.1-0.4,0.1-0.4s0.3-1.4,0-2.7
											c-0.2-0.8-0.5-1.4-0.7-1.7c-0.5-0.9-1.3-1.4-2.4-1.7c0,0,0-0.1,0-0.1c0-1-1-1.8-2.3-1.8c-1.3,0-2.3,0.8-2.3,1.8
											c0,0.1,0,0.1,0,0.2c-3.6,1.1-3.7,5-3.3,6.4c0,0,0,0,0,0l0,0c-0.6,0.2-0.9,1-0.7,1.9c0.2,0.9,0.8,1.3,1.5,1.3
											c0.7,1.9,1.9,3.5,3.4,4.1v0.3c0,0.5-0.1,0.4-0.5,0.6c-0.8,0.4-2.8,0.4-3.3,0.8c0,0,0,0,0,0c-1.1,0.6-1.4,3.7-1.5,5.1h1.6
											h0.8h0.4h0.8h2.9h0h0h2.8h1h0.4h0.8h1.6C230.4,77.7,230.1,74.5,229,74z"/>
									</g>
								</g>
							</g>
						</g>
						<g>
							
								<image style="overflow:visible;opacity:0.15;" width="168" height="190" xlink:href="176AF704.png"  transform="matrix(1 0 0 1 102.5423 -3.9027)">
							</image>
							<g>
								<g>
									<g>
										
											<rect x="196.9" y="94.6" transform="matrix(0.803 -0.596 0.596 0.803 -22.8816 139.5454)" class="st0" width="5.6" height="19.5"/>
										<g>
											
												<rect x="212.3" y="106.8" transform="matrix(0.803 -0.596 0.596 0.803 -35.3763 157.1542)" class="st7" width="15.4" height="50.5"/>
										</g>
									</g>
									<g>
										<path class="st7" d="M174.4,15.8c-12.5-1.8-24.5,1.6-33.9,8.6c-9.3,6.9-15.9,17.4-17.7,29.8c-3.7,24.9,13.5,48,38.3,51.7
											c11.3,1.7,22.2-1,31.1-6.7c0.8-0.5,1.7-1.1,2.5-1.7c0.7-0.5,1.4-1,2-1.6c8.4-6.9,14.3-16.8,16-28.4
											C216.4,42.6,199.3,19.5,174.4,15.8z M201.9,65.8c-1.4,9.5-6.6,17.5-13.7,22.8c-7.1,5.2-16.1,7.7-25.5,6.3
											c-18.9-2.8-31.9-20.4-29.1-39.2c1.4-9.4,6.4-17.3,13.4-22.6c7.1-5.3,16.3-7.9,25.8-6.5C191.7,29.4,204.7,47,201.9,65.8z"
											/>
									</g>
								</g>
							</g>
						</g>
					</g>
					<g>
						<rect x="0.5" y="129.5" class="st8" width="59.2" height="77.9"/>
						<rect x="6.9" y="136.8" class="st0" width="46.4" height="65.5"/>
						<g>
							<path class="st9" d="M36.3,126.9l-1.8-4.6h-6.3l-1.8,4.6H19v6.7h24.8v-6.7H36.3z M31.3,123.8c0.4,0,0.8,0.4,0.8,0.8
								c0,0.4-0.4,0.8-0.8,0.8c-0.4,0-0.8-0.4-0.8-0.8C30.5,124.1,30.9,123.8,31.3,123.8z"/>
							<rect x="19" y="132.1" class="st3" width="24.8" height="1.5"/>
						</g>
						<line class="st10" x1="12.7" y1="144" x2="34.9" y2="144"/>
						<line class="st11" x1="12.7" y1="147.7" x2="26.2" y2="147.7"/>
						<line class="st12" x1="12.7" y1="151.4" x2="21.7" y2="151.4"/>
						<rect x="39.3" y="143.2" class="st13" width="9.1" height="9.1"/>
						<polyline class="st10" points="42,147 44.9,150.2 51.2,143.2 						"/>
						<line class="st12" x1="12.7" y1="158.7" x2="34.9" y2="158.7"/>
						<line class="st11" x1="12.7" y1="162.4" x2="26.2" y2="162.4"/>
						<line class="st10" x1="12.7" y1="166" x2="21.7" y2="166"/>
						<rect x="39.3" y="157.8" class="st13" width="9.1" height="9.1"/>
						<polyline class="st10" points="42,161.6 44.9,164.8 51.2,157.8 						"/>
						<line class="st11" x1="12.7" y1="173.3" x2="34.9" y2="173.3"/>
						<line class="st10" x1="12.7" y1="177" x2="26.2" y2="177"/>
						<line class="st10" x1="12.7" y1="180.7" x2="21.7" y2="180.7"/>
						<rect x="39.3" y="172.5" class="st13" width="9.1" height="9.1"/>
						<polyline class="st10" points="42,176.3 44.9,179.5 51.2,172.5 						"/>
						<line class="st12" x1="12.7" y1="188" x2="34.9" y2="188"/>
						<line class="st11" x1="12.7" y1="191.7" x2="26.2" y2="191.7"/>
						<line class="st10" x1="12.7" y1="195.4" x2="21.7" y2="195.4"/>
						<rect x="39.3" y="187.1" class="st13" width="9.1" height="9.1"/>
					</g>
				</g>
			</g>
		</g>
	</g>
</g>
</svg>
